# xmcd
#
# Track frame offsets:
#	150
#	10955
#	25690
#	44355
#	60457
#	82737
#	94677
#	108652
#	125422
#	137772
#
# Disc length: 2016 seconds
#
# Revision: 0
# Processed by: cddbd v1.4PL0 Copyright (c) Steve Scherf et al.
# Submitted via: dBpowerAMP V4.0
#
DISCID=7607de0a
DTITLE=Various Artist - Voices of the Season - A Cappella
DYEAR=1900
DGENRE=Country
TTITLE0=Away In A Manger/Willie Nelson
TTITLE1=Go Tell It On The Mountain/Tim Mensy
TTITLE2=O Holy Night/Shelby Lynne
TTITLE3=O Little Town Of Bethlehem/Doug Stone
TTITLE4=O Come All Ye Faithful/Ricky Skaggs
TTITLE5=Joy To The World/Vern Gosdin
TTITLE6=O Come, O Come Emanuel/Mike Reid
TTITLE7=It Came Upon The Midnight Clear/Tammy Wynette
TTITLE8=The First Noel/Les Taylor
TTITLE9=Silent Night/Zaca Creek
EXTD=1990 CBS Records - Epic
EXTT0=
EXTT1=
EXTT2=
EXTT3=
EXTT4=
EXTT5=
EXTT6=
EXTT7=
EXTT8=
EXTT9=
PLAYORDER=
